<?xml version="1.0" encoding="UTF-8"?>
<svg id="Ebene_2" xmlns="http://www.w3.org/2000/svg" version="1.1" viewBox="0 0 566.9 539.3">
  <!-- Generator: Adobe Illustrator 29.1.0, SVG Export Plug-In . SVG Version: 2.1.0 Build 142)  -->
  <g id="Ebene_1-2">
    <path d="M548.9,78.1c-11.6-24-27-42.5-45.9-54.9-21.1-13.9-46.4-20.2-75.4-18.8-44.2,2.1-80.7,19.6-108.3,52-2.1,2.4-3.9,4.5-5.5,6.3-9.9,11.4-13.1,15.1-29.2,41.5-19.1-33.2-25.4-42.7-43.3-62.4C219.2,17.5,197.1,3.6,144,.2c-24.4-1.5-49.2,4.2-71.7,16.7-20.9,11.6-38.5,28.3-49.7,47.2C1.3,100-4.3,133.6,3.1,180c.2,1.3,1,2.4,2.2,3.1,21.1,11.2,109.2,58.5,155.4,84.6,4.1,2.5,11.3,6.7,19.2,11.2,11.2,6.5,25.8,14.8,33,18.6l1.6.9,1.7-.6c10.5-3.5,19.5-5.6,28.2-6.7,6.5-.8,12.6-1,19.3-.7-5.3,3.5-10.1,7.6-14.2,12.1-6.1,6.7-11.2,17.5-5.2,25.7,3.6,4.9,10.4,7.2,17.4,5.7,5.3-1.1,9.7-3.9,14-6.6l.4-.2c8.4-5.4,18.3-11.1,28.4-10.9,11.9.2,22.6,8.2,32.6,16.4,13.8,11.3,27.7,23.8,32.9,40.1,0,.1,0,.3,0,.4,0,.3,0,.4.2,2.6.1,3.6-2.9,11.4-12.4,13.1-3.4-10.1-13.8-19.4-22.3-27.1-3.5-3.2-6.8-6.1-8.9-8.5-1.5-1.8-4.2-2-6-.4s-2,4.2-.4,6c2.4,2.8,5.9,5.9,9.6,9.3,8.6,7.7,19.3,17.4,20.5,25.9.4,3-.4,5.7-2.7,8.3-1.5,1.7-3.6,2.2-5,2.3-2.6.1-5.4-.8-7.3-2.5l-4.6-5.4c-4.7-5.5-9.6-11.2-15.2-16.2-1.8-1.5-4.4-1.4-6,.4-1.5,1.8-1.4,4.4.4,6,5.2,4.6,9.9,10,14.4,15.3l4.5,5.2c1.5,3.2,3.2,8.7.6,12.7-1.1,1.6-3.3,2.9-5.4,3-.9,0-2.6,0-3.7-1.2,0,0-.2-.1-.2-.2h0l-14-13.3c-.1-.4-.2-.9-.4-1.3-1.5-3.7-4.9-5.9-8.6-6.8,0-.1.1-.2.2-.3,1.9-3.4,2.3-8,1-12.4-1.2-3.8-3.5-6.8-6.4-8.2-1-.5-3-1.3-5.7-1.6,2.9-7.8,1.6-15-3.5-20.1-4.9-4.8-13-5.9-19.6-4.7.4-2.4.2-4.7-.8-7.1-2.9-6.5-11.1-9.5-17.3-8.6-5.5.8-11,3.2-15.5,6.7-3.5,2.8-14.3,11.5-20.7,19-30.9-17.2-86-41-126.6-58.6-12.2-5.3-23.8-10.3-33-14.4-1.7-.7-3.6-.3-4.8,1s-1.5,3.3-.6,4.9c2.6,4.7,5.2,9.3,7.8,13.7,28.8,48.1,58.4,88.5,90.5,123.6,39.9,43.5,84.4,79.1,132.3,105.8.6.4,1.4.5,2.1.5s1.3-.2,2-.5c49.4-25.7,93-58.5,133.3-100,40.2-41.5,74.7-89.3,103-130.6,1.1-1.6,1-3.7-.3-5.1-1.2-1.5-3.3-1.9-5-1.1-12.3,5.9-26.3,12.1-41.1,18.6-30.9,13.7-65.8,29.1-91.6,44.7-6.8-16.1-20.4-28.2-33.9-39.3-11.1-9.1-23.2-18.1-37.8-18.3-12.5-.2-23.6,6.2-33.1,12.2l-.4.2c-3.8,2.4-7.4,4.7-11.2,5.5-3,.6-7,.1-8.8-2.4-2.8-3.8.4-10.5,4.6-15,6.6-7.2,15.1-13.2,24.5-17.2,5.2-2.2,10.8-3.9,16.4-4.9,3-.5,6-.9,8.9-1.1,2.9-.2,5.8-.3,8.7-.2,18.1.1,34.1,4.3,46.2,12.2,1.5,1,3.4.9,4.8-.1,1.9-1.4,8.3-5.5,13.7-9,2.2-1.4,4.5-2.9,6.8-4.4,7-4.5,13-8.4,15.3-9.9,37.7-21.3,97.5-49.2,137.1-67.6,8.8-4.1,16.3-7.6,22.4-10.5,1.2-.6,2.1-1.7,2.3-3,8-42.8,3.8-77-14.2-114.2h0ZM313.8,427.1c1.3,2.2,1.2,5.1-.4,7-1.6,2-3.3,3.2-4.9,3.6-2.4.6-4.6,0-8.5-4.3l-2.6-3.5c0,0,.1-.2.2-.2,2.6-3.3,5.4-6.7,7.1-11.2l9.1,8.6h0ZM292.2,408.1c2.3-.4,5,.5,5.5,1.8,0,.2.1.4.2.7.1,1.2-.4,2.8-.7,3.9-1.2,3.6-3.5,6.5-6.2,9.9-.8.9-1.5,1.9-2.3,2.9-1.9,2.5-5,5-7.8,7.3l-1.1.9c-6.3,5.2-12.3,7.4-13.7,6.8-2.7-1.3-4.6-6.3-3.6-9.4.6-1.9,1.4-3.5,2.3-4.7,0,0,0,0,0,0l.2-.3,24.5-18.5c1.5-.9,2-1,2.6-1.1h0ZM288,386.7c.6.3,1.5,1.3,2,3.1.6,2.1.5,4.3-.2,5.7-1.4,2.5-2.7,4.6-5.4,7l-24.6,18.5-.4.2c0,0-.1,0-.2,0-1.6.8-3.6,1.2-6,1.2-2.1,0-4.2-1.4-5.4-3.5-.4-.7-1.6-3.3,0-5.5l.4-.6,29-24.4c2.4-2,5.5-3,8.5-2.5,1.2.2,2,.5,2.3.7h0ZM262.2,361.6c4.4-1.5,11.1-1.3,14.3,1.8,3.6,3.5,2.7,8.3,1.3,11.7-.4.9-.6,1.4-3.4,4.6l-31.3,26.4-.7.4s0,0,0,0c-3.3,1.5-8,2-10.6-.2-3.1-2.6-3.2-7.6-1.6-11.3,0,0,0-.1,0-.2l.2-.4,27.2-30.1c1-1,2.3-2,4.6-2.8ZM234.5,350.4c3.3-2.6,7.4-4.4,11.5-5,3.3-.5,7.3,1.2,8.4,3.6.8,1.8-.1,4.7-3.2,9.9l-27.4,30.4h-.1c-3.1,1.9-8.3,1.7-12.2-.5-.7-.4-1.3-1.3-1.6-2.7-1.1-4.6.9-12,3.3-15.5,4-5.7,13.7-14.2,21.4-20.3h0ZM349.2,209.1c-7.7,3.3-16,7-24.2,10.6l-2.4,1.1c-9.8-10.2-20.8-19.3-32.7-26.8v-28.7c3.1-.6,5.9-1.7,8.5-2.8,5.5-2.2,11.8-4.8,18-7.4,5.4-2.2,11-4.6,16-6.6,5.5,3.4,11,7.7,17.2,13.5-.1,5.8-.2,12.1-.3,18.4-.1,7-.2,14.1-.3,20.5,0,2.6,0,5.4.4,8.3h0ZM236.9,148.4c5.5,2.1,11.6,4.5,17.5,6.9,6.5,2.6,13.3,5.2,19.3,7.6,2.4.9,5,1.9,7.8,2.5v28.4c-13,7-25.6,14.8-37.7,23.3-.3.2-.7.5-1.2.9-4.7-1.5-9.2-3-13.5-4.5-4.1-1.4-8.4-2.9-12.9-4.3.1-1.6,0-3.2-.1-4.6-.4-6.5-.9-13.3-1.4-20-.4-6.4-.9-12.9-1.3-19.1,7-6.8,14.9-12.5,23.6-17h0ZM215.3,289.1c-7.2-3.9-19.5-10.9-29.6-16.7-.6-2.4-1.3-5.5-1.6-7.5-.6-3.4-1-7.6-1.4-12,9.1-9.9,18.6-20.9,28.9-33.4.6-.7,1.3-1.6,1.9-2.5,4.5,1.4,8.8,2.9,12.9,4.3,4.4,1.5,8.9,3,13.7,4.5,0,.3.1.6.2.8,2.4,8.4,5.2,16.8,8.3,25,.4.9.7,2.1,1.1,3.3,1,3.1,2.2,6.8,4.1,9.9-2.9,4.1-6.6,9.7-10,14.8-.8,1.1-1.5,2.2-2.2,3.2-8.2,1.1-16.6,3.1-26.1,6.2h0ZM305.1,276.5c-3.3.2-6.6.6-9.9,1.2-5.9,1.1-11.7,2.8-17.2,5-9.7-.8-17.7-1.2-25.7-.9,2.6-3.9,5.3-8,7.6-11.2,1.3.5,4.6,1.4,27.6,1.4s10.7,0,17.6-.1c.6,1.2,1.3,2.5,1.9,3.7.1.3.3.5.4.8-.8,0-1.5,0-2.3.1ZM362.7,288.3c-12.7-7.5-28.1-11.5-45.9-12-.7-1.3-1.5-3-2.3-4.5-.9-1.7-1.7-3.3-2.4-4.7,0-.1,0-.2.1-.3l12.8-37.1c.1-.3.2-.6.2-.9l3.1-1.4c8-3.5,16.2-7.1,23.7-10.4,1.6,2.6,3.6,4.8,5.4,6.8,3.9,4.3,8.1,8.9,12.2,13.5,3.7,4.1,7.5,8.2,11,12.2-.9,7-2.7,15.8-5,23.8-.7,2.5-1.8,5.6-2.6,8-4.9,3.2-8.3,5.4-10.5,6.9h0ZM384.4,274.2c2.5-8.9,4.3-18.2,5.1-25.6h0s0,0,0-.1c2.9-35-9.4-69.2-32.8-91.4h0c-7.9-7.5-14.8-12.9-21.9-17-14.3-8.3-30.4-12.1-50.8-11.8-17.9.5-34.5,4.4-49.2,11.6-10.8,5.3-20.4,12.3-28.8,20.8-22.8,23.2-34.7,57.3-32,91.1h0c0,0,.1,1.5.1,1.5.5,4.7.9,9.2,1.6,13,0,.1,0,.2,0,.4-3.5-2-6.6-3.9-9.1-5.3-.6-3.8-1-6.8-1.1-8.9-2.9-36.2,9.9-72.7,34.4-97.7,9.1-9.2,19.5-16.8,31.1-22.5,15.8-7.8,33.6-11.9,52.7-12.4h.1c21.9-.3,39.4,3.8,55.1,12.9,7.6,4.4,15.1,10.2,23.4,18.2,25.3,24,38.5,60.8,35.4,98.3-.5,6-1.4,12.1-2.8,18-2.3,1.5-6.3,4.1-10.8,7h0Z"/>
  </g>
</svg>