<?xml version="1.0" encoding="UTF-8"?>
<svg id="Ebene_2" data-name="Ebene 2" xmlns="http://www.w3.org/2000/svg" viewBox="0 0 1877.56 11317.84">
  <defs>
    <style>
      .cls-1 {
        fill: none;
        stroke: #4f00cc;
        stroke-miterlimit: 10;
        stroke-width: 41px;
      }
    </style>
  </defs>
  <g id="Ebene_1-2" data-name="Ebene 1">
    <path class="cls-1" d="M308.35,11.9c118.24,165.87,151.18,308.44,156.8,413.95C490.21,896.73-6.24,1136.06,100.45,1485.45c36.02,117.97,139.71,245.14,144.5,446.26,1.69,71.1-9.59,125.36-49.44,155.81-35.42,27.07-90.97,33.47-128.09,9.98-58.77-37.2-53.28-137.98-32.28-196.6,43.99-122.78,194.29-167.43,250.89-183.4,215.67-60.84,307.22,36.22,579.33,64.9,428.83,45.2,618.34-149.05,835.98,3.93,26.58,18.68,106.46,76.41,139.1,177.03,47.29,145.79-48.92,245.05-88.52,424.88-67.47,306.44,126.06,408.02,48.86,555.5-165.17,315.52-1237.94,207.52-1503.86-52.59-23.07-22.56-110.12-114.8-181.19-92.24-44.79,14.22-80.93,73.3-76.24,125.81,7.08,79.13,102.16,89.97,109.33,164.38,6.05,62.82-58.81,85.3-89.39,171.73-35.06,99.08,3.18,202.37,18.93,231.84,150.03,280.86,1424.2-211.94,1677.26,120.82,73.05,96.05,74.29,202.86,74.29,202.86,1.66,143.56-103.21,249.71-117.9,264.16-231.99,228.24-775.94,69.72-1401.97,98.49-66.41,3.05-205.92,11.55-259.17,101.35-29.36,49.51-34.48,127.11,0,178.82,37.01,55.51,88.77,34.92,121.14,83.64,50.68,76.28-44.37,174.64-2.88,250.93,35.06,64.48,143.65,69.08,192.94,70.17,513.69,11.3,1161.15-214.84,1357.49-7.09,84.68,89.61,99.5,274.81,42.9,388.49-43.92,88.21-112.46,96.45-143.34,196.46-38.17,123.62,40.49,195.5,1.38,267.23-48.4,88.79-225.5,82.49-335.56,73.48-615.48-50.4-951.96-334.72-1098.91-203.99-47.77,42.49-69.07,123.12-46.67,172.94,37.08,82.45,178.64,46.63,356.59,160.45,61.28,39.2,135.69,90.01,139.85,155.68,5.41,85.39-134.85,94.6-174.15,208.46-45.93,133.06,97.27,237.98,50.14,314-59.91,96.64-321.09-34.57-414.27,76.52-52.28,62.32-38.54,184.65,11.51,265.99,147.2,239.24,605.12,118.24,666.64,298.69,22.12,64.89-17.98,132.69-50.14,180.13-150.34,221.79-548.36,281.9-641.2,157.62-52.05-69.68-19.07-211.91,52.77-245.4,85.95-40.05,199.96,88.35,319.28,168.88,488.5,329.66,1090.91-126.45,1324.62,142.49,124.45,143.21,86.14,427.21-42.22,540.93-98.69,87.44-213.83,41.63-544.41,19.2-380.21-25.8-850.31-52.31-1064.87,197.01-20.77,24.14-60.47,75.64-84.83,150.57-66.42,204.33,15.84,476.25,189.14,601.2,243.66,175.68,667.48,60.94,836.43,15.21,32.86-8.9,105.89-29.98,205.57-30.17,53.48-.11,311.32-.62,388.67,145.08,39.91,75.17,32.55,190.73-24.35,272.25-199.25,285.45-889.37-13.39-1088.11,285.18-34.66,52.08-44.3,107.19-47.07,127.36-27.35,199.49,155.05,355.36,245.58,476.53,110.22,147.53,203.86,403.69,111.83,878.65"/>
  </g>
</svg>