<?xml version="1.0" encoding="UTF-8"?>
<svg id="Ebene_2" data-name="Ebene 2" xmlns="http://www.w3.org/2000/svg" viewBox="0 0 1553.64 1363.88">
  <defs>
    <style>
      .cls-1 {
        fill: #4f00cc;
      }
    </style>
  </defs>
  <g id="Ebene_1-2" data-name="Ebene 1">
    <path class="cls-1" d="M1.76,18.03c66.2,89.05,143.83,169,232.72,235.56,78.28,58.61,164.93,106.03,257,139.13,81.98,29.47,169.37,48.05,256.63,50.24,90.93,2.29,177.21-25.8,259.53-61.85,69.96-30.63,139.37-69.8,215.51-82.74,33.13-5.63,68.13-4.28,100.79,6.02,36.84,11.62,70,33.82,98.17,59.93,53.3,49.38,85.77,114.94,99.46,185.86,15.1,78.28,7.95,160.45-9.82,237.88-20.8,90.66-56.46,177.54-100.98,259.04-47.88,87.65-106.25,169.6-173.25,243.65-16.32,18.04-33.17,35.6-50.5,52.67-11.02,10.86,5.95,27.82,16.97,16.97,72.5-71.42,136.55-151.62,190.48-237.92,51.19-81.92,93.68-169.98,122.56-262.27,25.36-81.05,40.69-167.02,35.65-252.16-4.43-74.87-25.35-149.84-69.83-211.08-45.43-62.55-113.71-114.16-191.9-124.14-75.4-9.63-148.61,21.25-215.84,51.52-77.99,35.11-155.32,73.06-240.28,88.1-86.08,15.23-176.54,2.7-260.42-19.15-91.24-23.77-178.12-62.43-257.96-112.46-90.66-56.81-171.63-128.22-241.4-209.21C56.75,50.35,39.22,28.43,22.48,5.92,18.62.72,12.09-1.92,6.06,1.61.94,4.61-2.13,12.8,1.76,18.03h0Z"/>
  </g>
</svg>