<?xml version="1.0" encoding="UTF-8"?>
<svg id="Ebene_1" data-name="Ebene 1" xmlns="http://www.w3.org/2000/svg" viewBox="0 0 1920 7737.26">
  <defs>
    <style>
      .cls-1 {
        fill: none;
        stroke: #4f00cc;
        stroke-miterlimit: 10;
        stroke-width: 41px;
      }
    </style>
  </defs>
  <path class="cls-1" d="M371.45-676.96c50.47,92.31,114.42,232.82,149.77,413.95,19.43,99.58,71.13,381.31-29.95,689.92-125.68,383.71-379.67,479.68-334.57,728.39,23.11,127.41,108.65,206.37,127.82,223.24,152.4,134.15,338.45,60.47,707.35,49.31,427.57-12.93,691.48-17.78,782.5,133.4,70.82,117.64,43.93,341.31-78.39,450.15-326.98,290.91-1200.13-359.4-1384.96-121.86-6.23,8.01-60.78,78.11-45.14,151.71,20.88,98.23,145.7,103.38,156.79,174.09,15.94,101.69-232.6,152.69-306.45,340.72-50.11,127.58-14.02,303.54,64.14,402.89,298.73,379.75,1336.13-201.8,1520.37,111.91,35.33,60.17,38.94,152.67,2.38,211.39-144.13,231.43-1043.64,27.53-1344.08,96.57-78.47,18.03-123,56.04-141.34,73.78-13.23,12.81-89.66,86.76-84.44,173.76,7.67,127.82,183.2,144.4,192.18,259.11,8.7,111.28-151.02,165.7-136.85,286.55,1.91,16.32,10.36,62.5,78.62,121.93,179.4,156.2,477.64,147.73,582.36,143.27,564.07-23.99,821.9-156.91,905.56-33.53,36.21,53.4,35.22,148.06-2.91,195.09-58.26,71.87-190.9,17.31-238.77,97.55-19.47,32.63-14.31,69.77-11.65,88.94,12.76,91.91,94.65,127.73,163.06,203.7,81.78,90.82,113.24,204.11,122.29,271.3,26.34,195.52-84.93,422.09-194.8,431.9-47.22,4.22-92.08-42.33-98.21-48.54-11.25-11.39-53.59-57.52-51.27-124.51,3.16-91.23,86.32-139.57,97.74-145.96,61.74-34.54,141.7-32.06,195.48,7.52,86.96,64,92.18,215.25,53.98,306.36-91.35,217.86-490.2,218.87-572.65,219.15-518.14,1.75-786.48-319.61-1015.65-161.51-87.25,60.19-118.51,155.16-125.64,179.14-44.11,148.33,17.66,328.51,131.77,405.02,82.04,55.01,174.17,45.06,243.39,36.26,555.64-70.64,861.37-223.06,1212.9-132.55,54.36,14,99.65,26.82,137.01,65.71,157.74,164.21,66.82,637.07-168.43,765.77-110.72,60.57-153.57-6.93-471.69-17.72-160.9-5.46-629.54-21.35-748.64,209.07-7.79,15.07-27.94,54.06-29.8,107.45-5.94,170.83,183.94,243.32,165.54,339.68-19.84,103.93-247.97,57.79-364.33,225.14-66.25,95.28-87.83,247.36-31.73,349.88,85.92,157,299.22,102.98,346.9,234.73,47.08,130.11-134.07,257.04-82.49,349.88,46.22,83.19,205.05,5.32,446.19,106.46,51.34,21.53,136.18,57.12,196.27,121.42,203.17,217.42,41.81,675.96,23.79,725.4"/>
</svg>